<svg width="26" height="26" viewBox="0 0 26 26" fill="none" xmlns="http://www.w3.org/2000/svg">
<g id="Icons / Activity" opacity="0.4">
<path id="Vector" fill-rule="evenodd" clip-rule="evenodd" d="M15.5234 21.6672C15.4508 21.6672 15.3761 21.664 15.3013 21.6564C14.348 21.5621 13.6005 20.8894 13.3947 19.9415L10.4881 6.51679L7.49483 13.4306C7.32258 13.8271 6.93149 14.0839 6.50033 14.0839H3.25033C2.65124 14.0839 2.16699 13.5985 2.16699 13.0005C2.16699 12.4015 2.65124 11.9172 3.25033 11.9172H5.78966L8.50449 5.64579C8.88907 4.76179 9.73624 4.24721 10.6993 4.34362C11.6527 4.43787 12.4002 5.11062 12.606 6.05854L15.5126 19.4832L18.5058 12.5694C18.6781 12.1729 19.0681 11.9172 19.5003 11.9172H22.7503C23.3494 11.9172 23.8337 12.4015 23.8337 13.0005C23.8337 13.5985 23.3494 14.0839 22.7503 14.0839H20.211L17.4962 20.3542C17.1419 21.17 16.3825 21.6672 15.5234 21.6672Z" fill="#DDDDDD"/>
</g>
</svg>
