<svg width="26" height="26" viewBox="0 0 26 26" fill="none" xmlns="http://www.w3.org/2000/svg">
<g id="Icons / Cloud / Download" opacity="0.4">
<path id="Union" fill-rule="evenodd" clip-rule="evenodd" d="M12.9998 3.24989C15.7959 3.24989 18.2594 5.04931 19.1478 7.63198C21.79 7.99056 23.8332 10.2612 23.8332 12.9999C23.8332 14.3226 23.3522 15.5956 22.479 16.5846C22.2645 16.8262 21.9666 16.9508 21.6665 16.9508C21.4119 16.9508 21.1563 16.862 20.9493 16.68C20.5019 16.2824 20.4586 15.5988 20.8551 15.1492C21.3783 14.5577 21.6665 13.7929 21.6665 12.9999C21.6665 11.2081 20.2083 9.74989 18.4165 9.74989H18.3082C17.7925 9.74989 17.3483 9.38589 17.2465 8.87998C16.8413 6.87364 15.056 5.41656 12.9998 5.41656C10.9448 5.41656 9.15834 6.87364 8.75425 8.87998C8.65242 9.38589 8.20717 9.74989 7.6915 9.74989H7.58317C5.79134 9.74989 4.33317 11.2081 4.33317 12.9999C4.33317 13.7929 4.62134 14.5577 5.14567 15.1492C5.54109 15.5988 5.49884 16.2824 5.05034 16.68C4.60075 17.0765 3.91717 17.0321 3.52175 16.5846C2.6475 15.5956 2.1665 14.3226 2.1665 12.9999C2.1665 10.2612 4.20967 7.99056 6.85192 7.63198C7.74134 5.04931 10.2048 3.24989 12.9998 3.24989ZM14.0836 19.1141L15.4974 17.7491C15.9285 17.3342 16.6143 17.3461 17.0292 17.7762C17.4452 18.2074 17.4333 18.8931 17.0032 19.308L13.7532 22.4464C13.5419 22.6479 13.2711 22.7498 13.0003 22.7498C12.7229 22.7498 12.4456 22.6447 12.2344 22.4324L8.98435 19.1824C8.56077 18.7599 8.56077 18.0741 8.98435 17.6505C9.40685 17.228 10.0926 17.228 10.5162 17.6505L11.9169 19.0513V12.9998C11.9169 12.4007 12.4023 11.9165 13.0003 11.9165C13.5983 11.9165 14.0836 12.4007 14.0836 12.9998V19.1141Z" fill="#DDDDDD"/>
</g>
</svg>
