<svg width="26" height="26" viewBox="0 0 26 26" fill="none" xmlns="http://www.w3.org/2000/svg">
<g id="Icons / Fire" opacity="0.4">
<path id="Exclude" fill-rule="evenodd" clip-rule="evenodd" d="M8.11963 10.3096C5.91829 12.6918 5.96488 16.4683 8.25938 18.8072C9.37954 19.9523 10.868 20.5839 12.454 20.585H12.4595C14.0487 20.585 15.5426 19.9534 16.6682 18.8072C19.0039 16.4261 18.9995 12.5531 16.6585 10.1752L13.4236 6.86997C13.0965 9.5588 12.0879 11.9183 10.2917 11.9183C9.74138 11.9183 8.84438 11.6735 8.11963 10.3096ZM12.4595 22.7516H12.4519C10.2787 22.7495 8.23988 21.8882 6.71129 20.3228C3.55446 17.1053 3.55013 11.8696 6.70154 8.65747L7.76646 7.58063C8.04163 7.30547 8.44138 7.1993 8.81946 7.29788C9.19538 7.39972 9.48788 7.69547 9.58538 8.07247C9.83454 9.03555 10.1314 9.50897 10.295 9.6888C10.6795 9.28363 11.375 7.64672 11.375 4.87663C11.375 4.71738 11.375 4.5668 11.3664 4.41622C11.3458 4.09663 11.4682 3.78355 11.7 3.56255C12.1301 3.15413 12.8191 3.15413 13.2319 3.5788L18.2044 8.65855C21.3677 11.8696 21.3731 17.1053 18.2152 20.3239C16.678 21.8904 14.6348 22.7516 12.4595 22.7516Z" fill="#DDDDDD"/>
</g>
</svg>
