<svg width="56" height="56" viewBox="0 0 56 56" fill="none" xmlns="http://www.w3.org/2000/svg">
<rect width="56" height="56" rx="2" fill="url(#paint0_linear_2337_1088)"/>
<path d="M35.1818 33.944C33.0214 33.944 31.2627 35.7016 31.2627 37.8631C31.2627 40.0245 33.0214 41.7822 35.1818 41.7822C37.3423 41.7822 39.1009 40.0245 39.1009 37.8631C39.1009 35.7016 37.3424 33.944 35.1818 33.944ZM34.2021 28.9144H36.1616C37.2439 28.9144 38.1212 28.0371 38.1212 26.9549V14.2178C38.1212 12.597 36.8026 11.2784 35.1818 11.2784C33.561 11.2784 32.2425 12.597 32.2425 14.2178V26.9549C32.2425 28.0371 33.1199 28.9144 34.2021 28.9144Z" fill="url(#paint1_linear_2337_1088)"/>
<path d="M38.1212 31.6904V26.9549H32.2425V31.6904C29.1659 33.1601 27.5592 36.6873 28.6956 40.1361C29.5204 42.6898 32.0051 44.7215 35.1818 44.7215C38.9644 44.7215 42.0403 41.6523 42.0403 37.8631C42.0403 35.2372 40.4922 32.827 38.1212 31.6904ZM35.1818 40.8024C33.5553 40.8024 32.2425 39.4894 32.2425 37.8631C32.2425 36.2366 33.5553 34.9237 35.1818 34.9237C36.8084 34.9237 38.1212 36.2366 38.1212 37.8631C38.1212 39.4894 36.8085 40.8024 35.1818 40.8024ZM28.1148 27.0267L29.4601 27.8036C29.931 28.074 30.5308 27.9121 30.7978 27.4448C31.0695 26.976 30.9088 26.377 30.4399 26.1063L29.0944 25.3293L29.487 25.2241C30.0094 25.0844 30.3194 24.5467 30.1797 24.0242C30.0381 23.5008 29.5099 23.1918 28.978 23.3315L26.6946 23.9436L25.5493 23.2822L24.7411 22.056L25.5492 20.83L26.6945 20.1686L28.9779 20.7806C29.5024 20.9205 30.0383 20.6097 30.1796 20.0879C30.3193 19.5655 30.0093 19.0278 29.4869 18.888L29.0944 18.7828L30.4399 18.0059C30.9087 17.735 31.0695 17.1361 30.7977 16.6673C30.5279 16.1965 29.9251 16.0387 29.4601 16.3085L28.1148 17.0855L28.22 16.6931C28.3597 16.1707 28.0497 15.633 27.5273 15.4933C27.003 15.3546 26.4691 15.6627 26.3256 16.186L25.7128 18.4724L24.5698 19.1324L23.103 19.2201L22.4447 17.9051V16.5831L24.1172 14.9106C24.4999 14.5279 24.4999 13.9078 24.1172 13.5251C23.7345 13.1424 23.1144 13.1424 22.7317 13.5251L22.4447 13.8122V12.2582C22.4447 11.7167 22.0064 11.2784 21.4649 11.2784C20.9233 11.2784 20.4851 11.7167 20.4851 12.2582V13.8121L20.198 13.525C19.8153 13.1423 19.1953 13.1423 18.8126 13.525C18.4299 13.9077 18.4299 14.5278 18.8126 14.9105L20.4851 16.583V17.905L19.8268 19.2199L18.36 19.1323L17.217 18.4723L16.6042 16.1859C16.4627 15.6626 15.9346 15.3535 15.4026 15.4932C14.8802 15.6329 14.5702 16.1706 14.7099 16.693L14.8151 17.0853L13.4698 16.3084C13.0029 16.0415 12.402 16.1984 12.1322 16.6672C11.8605 17.1361 12.0212 17.735 12.4901 18.0058L13.8356 18.7828L13.443 18.888C12.9206 19.0277 12.6106 19.5654 12.7503 20.0878C12.8916 20.6099 13.4278 20.9204 13.952 20.7805L16.2354 20.1685L17.3807 20.8299L18.1888 22.056L17.3808 23.282L16.2355 23.9434L13.9521 23.3314C13.4297 23.1927 12.8939 23.5017 12.7504 24.0241C12.6106 24.5465 12.9206 25.0842 13.4431 25.2239L13.8356 25.3292L12.4901 26.1062C12.0212 26.377 11.8605 26.9759 12.1322 27.4448C12.3989 27.9115 12.9982 28.0743 13.4698 27.8036L14.8151 27.0266L14.7099 27.4189C14.5436 28.0411 15.0123 28.6522 15.6572 28.6522C16.0896 28.6522 16.4858 28.3643 16.6044 27.926L17.2172 25.6396L18.3602 24.9796L19.827 24.892L20.4852 26.2069V27.529L18.8128 29.2014C18.4301 29.5841 18.4301 30.2042 18.8128 30.5869C19.1955 30.9696 19.8155 30.9696 20.1982 30.5869L20.4853 30.2998V31.8538C20.4853 32.3953 20.9235 32.8335 21.4651 32.8335C22.0066 32.8335 22.4449 32.3953 22.4449 31.8538V30.2999L22.7319 30.587C23.1146 30.9697 23.7346 30.9697 24.1174 30.587C24.5001 30.2043 24.5001 29.5842 24.1174 29.2015L22.4449 27.529V26.207L23.1032 24.8921L24.57 24.9797L25.7129 25.6397L26.3258 27.9261C26.4671 28.4482 27.0032 28.7586 27.5275 28.6188C28.0499 28.4791 28.3599 27.9414 28.2202 27.419L28.1148 27.0267ZM43.0201 24.9953H41.0605C40.519 24.9953 40.0807 25.4335 40.0807 25.9751C40.0807 26.5167 40.519 26.9549 41.0605 26.9549H43.0201C43.5616 26.9549 43.9998 26.5167 43.9998 25.9751C43.9998 25.4335 43.5616 24.9953 43.0201 24.9953ZM43.0201 21.0762H41.0605C40.519 21.0762 40.0807 21.5144 40.0807 22.056C40.0807 22.5975 40.519 23.0358 41.0605 23.0358H43.0201C43.5616 23.0358 43.9998 22.5975 43.9998 22.056C43.9998 21.5144 43.5616 21.0762 43.0201 21.0762ZM43.0201 17.1571H41.0605C40.519 17.1571 40.0807 17.5953 40.0807 18.1369C40.0807 18.6784 40.519 19.1167 41.0605 19.1167H43.0201C43.5616 19.1167 43.9998 18.6784 43.9998 18.1369C43.9998 17.5953 43.5616 17.1571 43.0201 17.1571ZM41.0605 15.1976H43.0201C43.5616 15.1976 43.9998 14.7593 43.9998 14.2178C43.9998 13.6762 43.5616 13.238 43.0201 13.238H41.0605C40.519 13.238 40.0807 13.6762 40.0807 14.2178C40.0807 14.7593 40.519 15.1976 41.0605 15.1976Z" fill="url(#paint2_linear_2337_1088)"/>
<defs>
<linearGradient id="paint0_linear_2337_1088" x1="28" y1="0" x2="28" y2="56" gradientUnits="userSpaceOnUse">
<stop stop-color="#0A3D38"/>
<stop offset="1" stop-color="#051E1C"/>
</linearGradient>
<linearGradient id="paint1_linear_2337_1088" x1="35.1818" y1="41.7822" x2="35.1818" y2="11.2784" gradientUnits="userSpaceOnUse">
<stop stop-color="#C3FFE8"/>
<stop offset="0.9973" stop-color="#F0FFF4"/>
</linearGradient>
<linearGradient id="paint2_linear_2337_1088" x1="27.9999" y1="44.7215" x2="27.9999" y2="11.2784" gradientUnits="userSpaceOnUse">
<stop stop-color="#00B59C"/>
<stop offset="1" stop-color="#9CFFAC"/>
</linearGradient>
</defs>
</svg>
