<svg width="39" height="39" viewBox="0 0 39 39" fill="none" xmlns="http://www.w3.org/2000/svg">
<g id="Group">
<path id="Vector" d="M17.2148 39C16.5429 39 15.9961 38.4533 15.9961 37.7812V34.8177C15.9961 34.3409 15.6898 33.9305 15.234 33.7962C14.2559 33.5046 13.3043 33.1106 12.4053 32.6253C12.2524 32.5423 12.0789 32.4984 11.9032 32.4984C11.6204 32.4984 11.344 32.6119 11.145 32.8097L9.04968 34.9039C8.81948 35.1341 8.51343 35.261 8.18802 35.261C7.86261 35.261 7.55655 35.1341 7.32636 34.9039L4.095 31.6726C3.61992 31.1975 3.61992 30.4243 4.095 29.9492L6.19049 27.8548C6.52663 27.5177 6.60029 27.0104 6.37376 26.5927C5.89098 25.7016 5.49778 24.7507 5.20498 23.7662C5.07168 23.3174 4.65121 23.0039 4.18229 23.0039H1.21875C0.546762 23.0039 0 22.4572 0 21.7852V17.2148C0 16.5428 0.546762 15.9961 1.21875 15.9961H4.18229C4.65844 15.9961 5.06947 15.6893 5.20498 15.2327C5.49824 14.2479 5.89212 13.2963 6.37597 12.404C6.59732 11.9936 6.52107 11.4758 6.19041 11.1452L4.09492 9.05082C3.86428 8.82009 3.73753 8.5135 3.73798 8.18756C3.73844 7.86254 3.86527 7.55701 4.09492 7.32743L7.32629 4.09607C7.55648 3.8658 7.86254 3.73905 8.18794 3.73905C8.51335 3.73905 8.81941 3.86587 9.0496 4.09607L11.1451 6.19041C11.3491 6.39311 11.6165 6.50485 11.8981 6.50485C12.0736 6.50485 12.2497 6.45983 12.4075 6.37475C13.3033 5.88991 14.2542 5.49595 15.2337 5.20391C15.6826 5.07091 15.9961 4.65083 15.9961 4.18229V1.21875C15.9961 0.546762 16.5429 0 17.2148 0H21.7852C22.4571 0 23.0039 0.546762 23.0039 1.21875V4.18229C23.0039 4.65905 23.3102 5.06954 23.766 5.20383C24.7441 5.49542 25.6957 5.88938 26.5947 6.37475C26.7468 6.45808 26.9201 6.50203 27.0962 6.50203C27.3803 6.50203 27.6568 6.38846 27.8548 6.19041L29.9503 4.09607C30.1805 3.8658 30.4866 3.73905 30.812 3.73905C31.1374 3.73905 31.4434 3.86587 31.6736 4.09607L34.905 7.32743C35.3801 7.80259 35.3801 8.57566 34.905 9.05082L32.8095 11.1452C32.4734 11.4823 32.3997 11.9896 32.6262 12.4073C33.109 13.2984 33.5022 14.2493 33.795 15.2338C33.9283 15.6826 34.3489 15.9961 34.8177 15.9961H37.7812C38.4532 15.9961 39 16.5428 39 17.2148V21.7852C39 22.4572 38.4532 23.0039 37.7812 23.0039H34.8177C34.3416 23.0039 33.9306 23.3107 33.795 23.7673C33.5018 24.7521 33.1079 25.7037 32.624 26.5959C32.4027 27.0064 32.4789 27.5241 32.8096 27.8548L34.9051 29.9491C35.1357 30.1798 35.2625 30.4864 35.262 30.8124C35.2616 31.1374 35.1347 31.4429 34.9051 31.6725L31.6737 34.9039C31.4435 35.1341 31.1375 35.261 30.8121 35.261C30.4867 35.261 30.1806 35.1341 29.9504 34.9039L27.8549 32.8095C27.6524 32.607 27.3853 32.4955 27.1028 32.4955C26.9268 32.4955 26.7504 32.5404 26.5925 32.6252C25.6968 33.11 24.7459 33.5039 23.7664 33.7959C23.3174 33.9289 23.004 34.349 23.004 34.8176V37.7812C23.004 38.4533 22.4572 39 21.7852 39H17.2148Z" fill="url(#paint0_linear_2337_1099)"/>
<path id="Vector_2" d="M19.5001 29.8848C15.664 29.8848 12.5442 26.7638 12.5442 22.9277C12.5442 21.8309 12.8053 20.7386 13.2985 19.7678L18.3932 9.79374C18.8172 8.96133 20.183 8.96133 20.6069 9.79374L25.6994 19.7678C26.1948 20.7386 26.4559 21.8309 26.4559 22.9277C26.4559 26.7638 23.3362 29.8848 19.5001 29.8848Z" fill="#030F0E"/>
</g>
<defs>
<linearGradient id="paint0_linear_2337_1099" x1="19.5" y1="39" x2="19.5" y2="0" gradientUnits="userSpaceOnUse">
<stop stop-color="#00B59C"/>
<stop offset="1" stop-color="#9CFFAC"/>
</linearGradient>
</defs>
</svg>
