<svg width="24" height="24" viewBox="0 0 24 24" fill="none" xmlns="http://www.w3.org/2000/svg">
<g id="Icons">
<path id="Union" fill-rule="evenodd" clip-rule="evenodd" d="M11.1567 4.31547C11.524 4.10865 11.9385 4 12.36 4C12.7816 4 13.196 4.10865 13.5634 4.31547C13.9307 4.52229 14.2386 4.82029 14.4572 5.18073L14.4596 5.18461L14.4596 5.18462L21.3847 16.7456L21.3915 16.7569L21.3914 16.7569C21.6055 17.1278 21.7189 17.5483 21.7201 17.9766C21.7213 18.4049 21.6103 18.8261 21.3982 19.1982C21.1861 19.5702 20.8803 19.8803 20.5112 20.0975C20.142 20.3147 19.7225 20.4315 19.2942 20.4362L19.2852 20.4363V20.4362H5.43486H5.42588L5.42588 20.4362C4.99761 20.4315 4.57804 20.3147 4.20891 20.0975C3.83978 19.8803 3.53396 19.5702 3.32187 19.1982C3.10978 18.8261 2.99881 18.4049 3.00001 17.9766C3.00121 17.5483 3.11453 17.1278 3.3287 16.7569L3.33525 16.7456L3.33534 16.7456L10.2605 5.18462L10.2629 5.18072L10.2629 5.18073C10.4815 4.82029 10.7893 4.52229 11.1567 4.31547ZM12.36 5.63522C12.2195 5.63522 12.0814 5.67144 11.9589 5.74038C11.837 5.80902 11.7348 5.90778 11.6619 6.02721L11.661 6.0288L4.7421 17.5793C4.67245 17.7018 4.63562 17.8403 4.63523 17.9812C4.63483 18.124 4.67182 18.2644 4.74251 18.3884C4.81321 18.5124 4.91515 18.6158 5.03819 18.6882C5.16016 18.7599 5.29864 18.7988 5.44009 18.801H19.28C19.4214 18.7988 19.5599 18.7599 19.6819 18.6882C19.8049 18.6158 19.9069 18.5124 19.9776 18.3884C20.0483 18.2644 20.0852 18.124 20.0848 17.9812C20.0844 17.8403 20.0476 17.7018 19.978 17.5793L13.0591 6.0288L13.0581 6.02721C12.9853 5.90778 12.8831 5.80902 12.7612 5.74038C12.6387 5.67144 12.5006 5.63522 12.36 5.63522ZM12.36 8.98968C12.8116 8.98968 13.1776 9.35573 13.1776 9.80729V13.0777C13.1776 13.5293 12.8116 13.8953 12.36 13.8953C11.9084 13.8953 11.5424 13.5293 11.5424 13.0777V9.80729C11.5424 9.35573 11.9084 8.98968 12.36 8.98968ZM12.36 15.5306C11.9084 15.5306 11.5424 15.8966 11.5424 16.3482C11.5424 16.7997 11.9084 17.1658 12.36 17.1658H12.3688C12.8204 17.1658 13.1864 16.7997 13.1864 16.3482C13.1864 15.8966 12.8204 15.5306 12.3688 15.5306H12.36Z" fill="#B7E6E1"/>
</g>
</svg>
